# xmcd
#
# Track frame offsets:
#	150
#	12671
#	25355
#	40007
#	52432
#	66459
#	82541
#	96220
#	107168
#	119953
#	132698
#	145365
#	157717
#	170917
#	194567
#
# Disc length: 2764
#
# Revision: 3
# Processed by: cddbd v1.5.1PL0 Copyright (c) Steve Scherf et al.
# Submitted via: CDex 1.30
# Normalized: r1:DSETVAR1,TDELIM( - ),TSWAP
#
DISCID=e60aca0f
DTITLE=Various Artist - World of country and western, The - CD1
DYEAR=2001
DGENRE=Country
TTITLE0=Hank Williams - Lovesick blues
TTITLE1=Roy Rogers - Don't Fence Me In
TTITLE2=Don Gibson - I Can't Stop Lovin' You
TTITLE3=Jimmie Rodgers - Waitin' For A Train
TTITLE4=Hank Snow - On The Mississippi Shore
TTITLE5=Merle Haggard - Today I Started Loving You Again
TTITLE6=The Carter Family - Bonnie Blue Eyes
TTITLE7=Gene Autry - You Are My Sunshine
TTITLE8=Roy Acuff - Night Train To Memphis
TTITLE9=Faron Young - I Fall To Pieces
TTITLE10=Ernest Tubb - You Nearly Lost Your Mind
TTITLE11=Don Gibson - Kaw-Liga
TTITLE12=Hank Snow - Linda Lou
TTITLE13=Willie Nelson - Till I Gain Control Again
TTITLE14=Jimmie Rodgers - Frankie And Johnnie-
EXTD=\nYEAR: 2001  ID3G:   2
EXTT0=
EXTT1=
EXTT2=
EXTT3=
EXTT4=
EXTT5=
EXTT6=
EXTT7=
EXTT8=
EXTT9=
EXTT10=
EXTT11=
EXTT12=
EXTT13=
EXTT14=
PLAYORDER=
